<mxfile host="app.diagrams.net" modified="2023-10-14T17:16:06.959Z" agent="Mozilla/5.0 (Windows NT 10.0; Win64; x64) AppleWebKit/537.36 (KHTML, like Gecko) Chrome/117.0.0.0 Safari/537.36" etag="JhluuqcvQr7Wwr5jainB" version="21.2.3" type="device">
  <diagram name="Page-1" id="9dndzVwj0pHZemEBj2SA">
    <mxGraphModel dx="1290" dy="534" grid="1" gridSize="10" guides="1" tooltips="1" connect="1" arrows="1" fold="1" page="1" pageScale="1" pageWidth="850" pageHeight="1100" math="0" shadow="0">
      <root>
        <mxCell id="0" />
        <mxCell id="1" parent="0" />
        <mxCell id="D68Qkv83caYyWmBr32yW-1" value="" style="endArrow=classic;html=1;rounded=0;" edge="1" parent="1">
          <mxGeometry width="50" height="50" relative="1" as="geometry">
            <mxPoint x="200" y="360" as="sourcePoint" />
            <mxPoint x="200" y="40" as="targetPoint" />
          </mxGeometry>
        </mxCell>
        <mxCell id="D68Qkv83caYyWmBr32yW-2" value="" style="endArrow=classic;html=1;rounded=0;" edge="1" parent="1">
          <mxGeometry width="50" height="50" relative="1" as="geometry">
            <mxPoint x="200" y="360" as="sourcePoint" />
            <mxPoint x="520" y="360" as="targetPoint" />
          </mxGeometry>
        </mxCell>
        <mxCell id="D68Qkv83caYyWmBr32yW-3" value="" style="endArrow=none;dashed=1;html=1;dashPattern=1 3;strokeWidth=2;rounded=0;" edge="1" parent="1">
          <mxGeometry width="50" height="50" relative="1" as="geometry">
            <mxPoint x="200" y="200" as="sourcePoint" />
            <mxPoint x="520" y="200" as="targetPoint" />
          </mxGeometry>
        </mxCell>
        <mxCell id="D68Qkv83caYyWmBr32yW-4" value="" style="endArrow=none;dashed=1;html=1;dashPattern=1 3;strokeWidth=2;rounded=0;" edge="1" parent="1">
          <mxGeometry width="50" height="50" relative="1" as="geometry">
            <mxPoint x="360" y="360" as="sourcePoint" />
            <mxPoint x="360" y="40" as="targetPoint" />
          </mxGeometry>
        </mxCell>
        <mxCell id="D68Qkv83caYyWmBr32yW-5" value="Big Bets" style="text;html=1;strokeColor=none;fillColor=none;align=center;verticalAlign=middle;whiteSpace=wrap;rounded=0;" vertex="1" parent="1">
          <mxGeometry x="410" y="110" width="60" height="30" as="geometry" />
        </mxCell>
        <mxCell id="D68Qkv83caYyWmBr32yW-6" value="Easy Wins" style="text;html=1;strokeColor=none;fillColor=none;align=center;verticalAlign=middle;whiteSpace=wrap;rounded=0;" vertex="1" parent="1">
          <mxGeometry x="250" y="110" width="60" height="30" as="geometry" />
        </mxCell>
        <mxCell id="D68Qkv83caYyWmBr32yW-7" value="Incremental" style="text;html=1;strokeColor=none;fillColor=none;align=center;verticalAlign=middle;whiteSpace=wrap;rounded=0;" vertex="1" parent="1">
          <mxGeometry x="250" y="270" width="60" height="30" as="geometry" />
        </mxCell>
        <mxCell id="D68Qkv83caYyWmBr32yW-8" value="Money Pit" style="text;html=1;strokeColor=none;fillColor=none;align=center;verticalAlign=middle;whiteSpace=wrap;rounded=0;" vertex="1" parent="1">
          <mxGeometry x="410" y="270" width="60" height="30" as="geometry" />
        </mxCell>
        <mxCell id="D68Qkv83caYyWmBr32yW-9" value="High" style="text;html=1;strokeColor=none;fillColor=none;align=center;verticalAlign=middle;whiteSpace=wrap;rounded=0;" vertex="1" parent="1">
          <mxGeometry x="410" y="370" width="60" height="30" as="geometry" />
        </mxCell>
        <mxCell id="D68Qkv83caYyWmBr32yW-10" value="Low" style="text;html=1;strokeColor=none;fillColor=none;align=center;verticalAlign=middle;whiteSpace=wrap;rounded=0;" vertex="1" parent="1">
          <mxGeometry x="250" y="370" width="60" height="30" as="geometry" />
        </mxCell>
        <mxCell id="D68Qkv83caYyWmBr32yW-11" value="High" style="text;html=1;strokeColor=none;fillColor=none;align=center;verticalAlign=middle;whiteSpace=wrap;rounded=0;" vertex="1" parent="1">
          <mxGeometry x="120" y="110" width="60" height="30" as="geometry" />
        </mxCell>
        <mxCell id="D68Qkv83caYyWmBr32yW-12" value="Low" style="text;html=1;strokeColor=none;fillColor=none;align=center;verticalAlign=middle;whiteSpace=wrap;rounded=0;" vertex="1" parent="1">
          <mxGeometry x="120" y="270" width="60" height="30" as="geometry" />
        </mxCell>
        <mxCell id="D68Qkv83caYyWmBr32yW-13" value="Impact" style="text;html=1;strokeColor=none;fillColor=none;align=center;verticalAlign=middle;whiteSpace=wrap;rounded=0;fontStyle=1;" vertex="1" parent="1">
          <mxGeometry x="110" y="190" width="60" height="30" as="geometry" />
        </mxCell>
        <mxCell id="D68Qkv83caYyWmBr32yW-14" value="Effort" style="text;html=1;strokeColor=none;fillColor=none;align=center;verticalAlign=middle;whiteSpace=wrap;rounded=0;fontStyle=1;" vertex="1" parent="1">
          <mxGeometry x="330" y="380" width="60" height="30" as="geometry" />
        </mxCell>
        <mxCell id="D68Qkv83caYyWmBr32yW-15" value="" style="ellipse;whiteSpace=wrap;html=1;aspect=fixed;fillColor=#66CC00;" vertex="1" parent="1">
          <mxGeometry x="600" y="55" width="20" height="20" as="geometry" />
        </mxCell>
        <mxCell id="D68Qkv83caYyWmBr32yW-16" value="" style="ellipse;whiteSpace=wrap;html=1;aspect=fixed;fillColor=#00FF80;" vertex="1" parent="1">
          <mxGeometry x="600" y="95" width="20" height="20" as="geometry" />
        </mxCell>
        <mxCell id="D68Qkv83caYyWmBr32yW-17" value="" style="ellipse;whiteSpace=wrap;html=1;aspect=fixed;fillColor=#00FFFF;" vertex="1" parent="1">
          <mxGeometry x="600" y="135" width="20" height="20" as="geometry" />
        </mxCell>
        <mxCell id="D68Qkv83caYyWmBr32yW-18" value="" style="ellipse;whiteSpace=wrap;html=1;aspect=fixed;fillColor=#99CCFF;" vertex="1" parent="1">
          <mxGeometry x="600" y="175" width="20" height="20" as="geometry" />
        </mxCell>
        <mxCell id="D68Qkv83caYyWmBr32yW-19" value="" style="ellipse;whiteSpace=wrap;html=1;aspect=fixed;fillColor=#0000FF;" vertex="1" parent="1">
          <mxGeometry x="600" y="215" width="20" height="20" as="geometry" />
        </mxCell>
        <mxCell id="D68Qkv83caYyWmBr32yW-20" value="" style="ellipse;whiteSpace=wrap;html=1;aspect=fixed;fillColor=#7F00FF;" vertex="1" parent="1">
          <mxGeometry x="600" y="255" width="20" height="20" as="geometry" />
        </mxCell>
        <mxCell id="D68Qkv83caYyWmBr32yW-21" value="" style="ellipse;whiteSpace=wrap;html=1;aspect=fixed;fillColor=#CC00CC;" vertex="1" parent="1">
          <mxGeometry x="600" y="295" width="20" height="20" as="geometry" />
        </mxCell>
        <mxCell id="D68Qkv83caYyWmBr32yW-22" value="" style="ellipse;whiteSpace=wrap;html=1;aspect=fixed;fillColor=#99004D;" vertex="1" parent="1">
          <mxGeometry x="600" y="335" width="20" height="20" as="geometry" />
        </mxCell>
        <mxCell id="D68Qkv83caYyWmBr32yW-23" value="List of Controls" style="text;html=1;strokeColor=none;fillColor=none;align=center;verticalAlign=middle;whiteSpace=wrap;rounded=0;" vertex="1" parent="1">
          <mxGeometry x="640" y="50" width="120" height="30" as="geometry" />
        </mxCell>
        <mxCell id="D68Qkv83caYyWmBr32yW-24" value="User Generated Content" style="text;html=1;strokeColor=none;fillColor=none;align=center;verticalAlign=middle;whiteSpace=wrap;rounded=0;" vertex="1" parent="1">
          <mxGeometry x="640" y="90" width="120" height="30" as="geometry" />
        </mxCell>
        <mxCell id="D68Qkv83caYyWmBr32yW-25" value="Playstyles" style="text;html=1;strokeColor=none;fillColor=none;align=center;verticalAlign=middle;whiteSpace=wrap;rounded=0;" vertex="1" parent="1">
          <mxGeometry x="640" y="130" width="120" height="30" as="geometry" />
        </mxCell>
        <mxCell id="D68Qkv83caYyWmBr32yW-26" value="Game News" style="text;html=1;strokeColor=none;fillColor=none;align=center;verticalAlign=middle;whiteSpace=wrap;rounded=0;" vertex="1" parent="1">
          <mxGeometry x="640" y="170" width="120" height="30" as="geometry" />
        </mxCell>
        <mxCell id="D68Qkv83caYyWmBr32yW-27" value="Hire Coaches" style="text;html=1;strokeColor=none;fillColor=none;align=center;verticalAlign=middle;whiteSpace=wrap;rounded=0;" vertex="1" parent="1">
          <mxGeometry x="640" y="210" width="120" height="30" as="geometry" />
        </mxCell>
        <mxCell id="D68Qkv83caYyWmBr32yW-28" value="User Profiles" style="text;html=1;strokeColor=none;fillColor=none;align=center;verticalAlign=middle;whiteSpace=wrap;rounded=0;" vertex="1" parent="1">
          <mxGeometry x="640" y="250" width="120" height="30" as="geometry" />
        </mxCell>
        <mxCell id="D68Qkv83caYyWmBr32yW-29" value="Profile &amp;amp; Post Awards" style="text;html=1;strokeColor=none;fillColor=none;align=center;verticalAlign=middle;whiteSpace=wrap;rounded=0;" vertex="1" parent="1">
          <mxGeometry x="640" y="290" width="120" height="30" as="geometry" />
        </mxCell>
        <mxCell id="D68Qkv83caYyWmBr32yW-30" value="Professional Articles" style="text;html=1;strokeColor=none;fillColor=none;align=center;verticalAlign=middle;whiteSpace=wrap;rounded=0;" vertex="1" parent="1">
          <mxGeometry x="640" y="330" width="120" height="30" as="geometry" />
        </mxCell>
        <mxCell id="D68Qkv83caYyWmBr32yW-32" value="" style="ellipse;whiteSpace=wrap;html=1;aspect=fixed;fillColor=#66CC00;" vertex="1" parent="1">
          <mxGeometry x="240" y="160" width="20" height="20" as="geometry" />
        </mxCell>
        <mxCell id="D68Qkv83caYyWmBr32yW-33" value="" style="ellipse;whiteSpace=wrap;html=1;aspect=fixed;fillColor=#00FF80;" vertex="1" parent="1">
          <mxGeometry x="435" y="70" width="20" height="20" as="geometry" />
        </mxCell>
        <mxCell id="D68Qkv83caYyWmBr32yW-34" value="" style="ellipse;whiteSpace=wrap;html=1;aspect=fixed;fillColor=#00FFFF;" vertex="1" parent="1">
          <mxGeometry x="320" y="120" width="20" height="20" as="geometry" />
        </mxCell>
        <mxCell id="D68Qkv83caYyWmBr32yW-36" value="" style="ellipse;whiteSpace=wrap;html=1;aspect=fixed;fillColor=#0000FF;" vertex="1" parent="1">
          <mxGeometry x="490" y="240" width="20" height="20" as="geometry" />
        </mxCell>
        <mxCell id="D68Qkv83caYyWmBr32yW-41" value="" style="ellipse;whiteSpace=wrap;html=1;aspect=fixed;fillColor=#7F00FF;" vertex="1" parent="1">
          <mxGeometry x="415" y="155" width="20" height="20" as="geometry" />
        </mxCell>
        <mxCell id="D68Qkv83caYyWmBr32yW-43" value="" style="ellipse;whiteSpace=wrap;html=1;aspect=fixed;fillColor=#CC00CC;" vertex="1" parent="1">
          <mxGeometry x="300" y="235" width="20" height="20" as="geometry" />
        </mxCell>
        <mxCell id="D68Qkv83caYyWmBr32yW-44" value="" style="ellipse;whiteSpace=wrap;html=1;aspect=fixed;fillColor=#99004D;" vertex="1" parent="1">
          <mxGeometry x="455" y="140" width="20" height="20" as="geometry" />
        </mxCell>
        <mxCell id="D68Qkv83caYyWmBr32yW-46" value="" style="ellipse;whiteSpace=wrap;html=1;aspect=fixed;fillColor=#99CCFF;" vertex="1" parent="1">
          <mxGeometry x="330" y="215" width="20" height="20" as="geometry" />
        </mxCell>
      </root>
    </mxGraphModel>
  </diagram>
</mxfile>
